# xmcd CD database file
# Copyright (C) 1993-1998 Ti Kan
#
# Track frame offsets:
#	150
#	12625
#	25070
#	37290
#	49548
#	61845
#	74163
#	87633
#	100313
#	112493
#	126100
#	138373
#	151655
#	165413
#	180648
#	193093
#	204358
#
# Disc length: 2902 seconds
#
# Revision: 1
# Processed by: cddbd v1.4b41PL1 Copyright (c) Steve Scherf et al.
# Submitted via: CDValet v3.31 - Copyright (c) 1997 Greg Leichner
#
DISCID=f60b5411
DTITLE=Selection Of LOS PANCHOS - CD II
DYEAR=1900
DGENRE=
TTITLE0=Rayito De Luna
TTITLE1=Sin Ti
TTITLE2=Espérame En El Cielo
TTITLE3=Vaya Con Dios
TTITLE4=Lo Dudo
TTITLE5=La Barca
TTITLE6=Me Voy Pa´l Pueblo
TTITLE7=Contigo
TTITLE8=Nuestro Amor
TTITLE9=Llamándote
TTITLE10=Historia De Un Amor
TTITLE11=Vagabundo
TTITLE12=Golondrina
TTITLE13=Perdón
TTITLE14=La Última Copa
TTITLE15=Ladrona De Besos
TTITLE16=Un Siglo De Ausencia
EXTD=
EXTT0=
EXTT1=
EXTT2=
EXTT3=
EXTT4=
EXTT5=
EXTT6=
EXTT7=
EXTT8=
EXTT9=
EXTT10=
EXTT11=
EXTT12=
EXTT13=
EXTT14=
EXTT15=
EXTT16=
PLAYORDER=
